<svg xmlns="http://www.w3.org/2000/svg" xmlns:xlink="http://www.w3.org/1999/xlink" width="1080" zoomAndPan="magnify" viewBox="0 0 810 809.999993" height="1080" preserveAspectRatio="xMidYMid meet" version="1.2"><defs/><g id="54b5c52260"><g style="fill:#ffffff;fill-opacity:1;"><g transform="translate(177.168451, 572.343741)"><path style="stroke:none" d="M 135.09375 45.546875 C 114.613281 45.546875 98.816406 40.382812 87.703125 30.0625 C 76.585938 19.75 71.03125 4.28125 71.03125 -16.34375 L 71.03125 -93.6875 C 71.03125 -107.050781 68.234375 -116.457031 62.640625 -121.90625 C 57.046875 -127.351562 47.710938 -130.078125 34.640625 -130.078125 L 17.21875 -130.078125 L 17.21875 -161.03125 L 34.640625 -161.03125 C 47.710938 -161.03125 57.046875 -163.785156 62.640625 -169.296875 C 68.234375 -174.816406 71.03125 -184.257812 71.03125 -197.625 L 71.03125 -274.984375 C 71.03125 -295.609375 76.585938 -311.078125 87.703125 -321.390625 C 98.816406 -331.703125 114.613281 -336.859375 135.09375 -336.859375 L 157.53125 -336.859375 L 157.53125 -308.546875 L 139.671875 -308.546875 C 127.753906 -308.546875 118.925781 -305.820312 113.1875 -300.375 C 107.457031 -294.925781 104.59375 -286.460938 104.59375 -274.984375 L 104.59375 -200.25 C 104.59375 -185.570312 101.796875 -174.203125 96.203125 -166.140625 C 90.609375 -158.078125 82.363281 -152.015625 71.46875 -147.953125 L 71.46875 -143.375 C 82.363281 -139.3125 90.609375 -133.25 96.203125 -125.1875 C 101.796875 -117.125 104.59375 -105.753906 104.59375 -91.078125 L 104.59375 -16.34375 C 104.59375 -4.863281 107.457031 3.597656 113.1875 9.046875 C 118.925781 14.492188 127.753906 17.21875 139.671875 17.21875 L 157.53125 17.21875 L 157.53125 45.546875 Z M 135.09375 45.546875 "/></g><g transform="translate(350.395369, 572.343741)"><path style="stroke:none" d=""/></g><g transform="translate(459.778909, 572.343741)"><path style="stroke:none" d="M 15.6875 45.546875 L 15.6875 17.21875 L 33.34375 17.21875 C 45.25 17.21875 54.070312 14.492188 59.8125 9.046875 C 65.550781 3.597656 68.421875 -4.863281 68.421875 -16.34375 L 68.421875 -91.078125 C 68.421875 -105.753906 71.21875 -117.125 76.8125 -125.1875 C 82.40625 -133.25 90.71875 -139.3125 101.75 -143.375 L 101.75 -147.953125 C 90.71875 -152.015625 82.40625 -158.078125 76.8125 -166.140625 C 71.21875 -174.203125 68.421875 -185.570312 68.421875 -200.25 L 68.421875 -274.984375 C 68.421875 -286.460938 65.550781 -294.925781 59.8125 -300.375 C 54.070312 -305.820312 45.25 -308.546875 33.34375 -308.546875 L 15.6875 -308.546875 L 15.6875 -336.859375 L 37.90625 -336.859375 C 58.394531 -336.859375 74.226562 -331.703125 85.40625 -321.390625 C 96.59375 -311.078125 102.1875 -295.609375 102.1875 -274.984375 L 102.1875 -197.625 C 102.1875 -184.257812 104.984375 -174.816406 110.578125 -169.296875 C 116.171875 -163.785156 125.503906 -161.03125 138.578125 -161.03125 L 155.796875 -161.03125 L 155.796875 -130.078125 L 138.578125 -130.078125 C 125.503906 -130.078125 116.171875 -127.351562 110.578125 -121.90625 C 104.984375 -116.457031 102.1875 -107.050781 102.1875 -93.6875 L 102.1875 -16.34375 C 102.1875 4.28125 96.59375 19.75 85.40625 30.0625 C 74.226562 40.382812 58.394531 45.546875 37.90625 45.546875 Z M 15.6875 45.546875 "/></g></g></g></svg>